<mxfile host="app.diagrams.net" modified="2022-03-18T14:05:06.060Z" agent="5.0 (Windows)" etag="gPjQTlxNvs7eZKu0ayaR" version="16.6.2" type="github">
  <diagram id="S5U35zioawIEqd8V08nD" name="Page-1">
    <mxGraphModel dx="1075" dy="954" grid="1" gridSize="10" guides="1" tooltips="1" connect="1" arrows="1" fold="1" page="1" pageScale="1" pageWidth="850" pageHeight="1100" math="0" shadow="0">
      <root>
        <mxCell id="0" />
        <mxCell id="1" parent="0" />
        <mxCell id="wlDCUmGC1mf5rQUe6NT3-1" value="emails" style="swimlane;childLayout=stackLayout;horizontal=1;startSize=30;horizontalStack=0;rounded=1;fontSize=14;fontStyle=0;strokeWidth=2;resizeParent=0;resizeLast=1;shadow=0;dashed=0;align=center;" vertex="1" parent="1">
          <mxGeometry x="80" y="80" width="160" height="120" as="geometry" />
        </mxCell>
        <mxCell id="wlDCUmGC1mf5rQUe6NT3-2" value="+email_id&#xa;+date&#xa;+subject&#xa;+contents&#xa;" style="align=left;strokeColor=none;fillColor=none;spacingLeft=4;fontSize=12;verticalAlign=top;resizable=0;rotatable=0;part=1;" vertex="1" parent="wlDCUmGC1mf5rQUe6NT3-1">
          <mxGeometry y="30" width="160" height="90" as="geometry" />
        </mxCell>
        <mxCell id="wlDCUmGC1mf5rQUe6NT3-3" value="contacts" style="swimlane;childLayout=stackLayout;horizontal=1;startSize=30;horizontalStack=0;rounded=1;fontSize=14;fontStyle=0;strokeWidth=2;resizeParent=0;resizeLast=1;shadow=0;dashed=0;align=center;" vertex="1" parent="1">
          <mxGeometry x="400" y="80" width="160" height="120" as="geometry" />
        </mxCell>
        <mxCell id="wlDCUmGC1mf5rQUe6NT3-4" value="+contact_id&#xa;+name&#xa;+email&#xa;" style="align=left;strokeColor=none;fillColor=none;spacingLeft=4;fontSize=12;verticalAlign=top;resizable=0;rotatable=0;part=1;" vertex="1" parent="wlDCUmGC1mf5rQUe6NT3-3">
          <mxGeometry y="30" width="160" height="90" as="geometry" />
        </mxCell>
        <mxCell id="wlDCUmGC1mf5rQUe6NT3-5" value="folders" style="swimlane;childLayout=stackLayout;horizontal=1;startSize=30;horizontalStack=0;rounded=1;fontSize=14;fontStyle=0;strokeWidth=2;resizeParent=0;resizeLast=1;shadow=0;dashed=0;align=center;" vertex="1" parent="1">
          <mxGeometry x="345" y="360" width="160" height="120" as="geometry" />
        </mxCell>
        <mxCell id="wlDCUmGC1mf5rQUe6NT3-6" value="+folder_id&#xa;+folder_name&#xa;+folder_color " style="align=left;strokeColor=none;fillColor=none;spacingLeft=4;fontSize=12;verticalAlign=top;resizable=0;rotatable=0;part=1;" vertex="1" parent="wlDCUmGC1mf5rQUe6NT3-5">
          <mxGeometry y="30" width="160" height="90" as="geometry" />
        </mxCell>
        <mxCell id="wlDCUmGC1mf5rQUe6NT3-7" value="labels " style="swimlane;childLayout=stackLayout;horizontal=1;startSize=30;horizontalStack=0;rounded=1;fontSize=14;fontStyle=0;strokeWidth=2;resizeParent=0;resizeLast=1;shadow=0;dashed=0;align=center;" vertex="1" parent="1">
          <mxGeometry x="80" y="360" width="160" height="120" as="geometry" />
        </mxCell>
        <mxCell id="wlDCUmGC1mf5rQUe6NT3-8" value="+label_id&#xa;+label_name&#xa;+label_category " style="align=left;strokeColor=none;fillColor=none;spacingLeft=4;fontSize=12;verticalAlign=top;resizable=0;rotatable=0;part=1;" vertex="1" parent="wlDCUmGC1mf5rQUe6NT3-7">
          <mxGeometry y="30" width="160" height="90" as="geometry" />
        </mxCell>
        <mxCell id="wlDCUmGC1mf5rQUe6NT3-10" value="" style="edgeStyle=orthogonalEdgeStyle;rounded=0;orthogonalLoop=1;jettySize=auto;html=1;curved=1;endArrow=none;endFill=0;" edge="1" parent="1" source="wlDCUmGC1mf5rQUe6NT3-9" target="wlDCUmGC1mf5rQUe6NT3-2">
          <mxGeometry relative="1" as="geometry" />
        </mxCell>
        <mxCell id="wlDCUmGC1mf5rQUe6NT3-11" value="" style="edgeStyle=orthogonalEdgeStyle;rounded=0;orthogonalLoop=1;jettySize=auto;html=1;entryX=0.5;entryY=0;entryDx=0;entryDy=0;curved=1;endArrow=none;endFill=0;" edge="1" parent="1" source="wlDCUmGC1mf5rQUe6NT3-9" target="wlDCUmGC1mf5rQUe6NT3-7">
          <mxGeometry relative="1" as="geometry" />
        </mxCell>
        <mxCell id="wlDCUmGC1mf5rQUe6NT3-9" value="&lt;div&gt;assigned &lt;br&gt;&lt;/div&gt;&lt;div&gt;to&lt;/div&gt;" style="shape=rhombus;html=1;dashed=0;whitespace=wrap;perimeter=rhombusPerimeter;" vertex="1" parent="1">
          <mxGeometry x="130" y="250" width="60" height="50" as="geometry" />
        </mxCell>
        <mxCell id="wlDCUmGC1mf5rQUe6NT3-20" value="" style="edgeStyle=orthogonalEdgeStyle;rounded=0;orthogonalLoop=1;jettySize=auto;html=1;entryX=0.823;entryY=1.006;entryDx=0;entryDy=0;entryPerimeter=0;curved=1;endArrow=none;endFill=0;" edge="1" parent="1" source="wlDCUmGC1mf5rQUe6NT3-12" target="wlDCUmGC1mf5rQUe6NT3-2">
          <mxGeometry relative="1" as="geometry" />
        </mxCell>
        <mxCell id="wlDCUmGC1mf5rQUe6NT3-21" style="edgeStyle=orthogonalEdgeStyle;rounded=0;orthogonalLoop=1;jettySize=auto;html=1;entryX=0.388;entryY=-0.018;entryDx=0;entryDy=0;entryPerimeter=0;curved=1;endArrow=block;endFill=0;" edge="1" parent="1" source="wlDCUmGC1mf5rQUe6NT3-12" target="wlDCUmGC1mf5rQUe6NT3-5">
          <mxGeometry relative="1" as="geometry" />
        </mxCell>
        <mxCell id="wlDCUmGC1mf5rQUe6NT3-12" value="contain" style="shape=rhombus;html=1;dashed=0;whitespace=wrap;perimeter=rhombusPerimeter;" vertex="1" parent="1">
          <mxGeometry x="250" y="250" width="60" height="50" as="geometry" />
        </mxCell>
        <mxCell id="wlDCUmGC1mf5rQUe6NT3-18" value="" style="edgeStyle=orthogonalEdgeStyle;rounded=0;orthogonalLoop=1;jettySize=auto;html=1;entryX=-0.018;entryY=0.38;entryDx=0;entryDy=0;entryPerimeter=0;curved=1;" edge="1" parent="1" source="wlDCUmGC1mf5rQUe6NT3-13" target="wlDCUmGC1mf5rQUe6NT3-4">
          <mxGeometry relative="1" as="geometry" />
        </mxCell>
        <mxCell id="wlDCUmGC1mf5rQUe6NT3-19" value="" style="edgeStyle=orthogonalEdgeStyle;rounded=0;orthogonalLoop=1;jettySize=auto;html=1;curved=1;endArrow=none;endFill=0;" edge="1" parent="1" source="wlDCUmGC1mf5rQUe6NT3-13">
          <mxGeometry relative="1" as="geometry">
            <mxPoint x="240" y="145" as="targetPoint" />
          </mxGeometry>
        </mxCell>
        <mxCell id="wlDCUmGC1mf5rQUe6NT3-13" value="&lt;div&gt;created &lt;br&gt;&lt;/div&gt;&lt;div&gt;by&lt;/div&gt;" style="shape=rhombus;html=1;dashed=0;whitespace=wrap;perimeter=rhombusPerimeter;" vertex="1" parent="1">
          <mxGeometry x="290" y="120" width="60" height="50" as="geometry" />
        </mxCell>
        <mxCell id="wlDCUmGC1mf5rQUe6NT3-16" value="conversations" style="swimlane;childLayout=stackLayout;horizontal=1;startSize=30;horizontalStack=0;rounded=1;fontSize=14;fontStyle=0;strokeWidth=2;resizeParent=0;resizeLast=1;shadow=0;dashed=0;align=center;" vertex="1" parent="1">
          <mxGeometry x="600" y="220" width="160" height="120" as="geometry" />
        </mxCell>
        <mxCell id="wlDCUmGC1mf5rQUe6NT3-17" value="+conversation_id&#xa;+date&#xa;+starting_email&#xa;+replying_email" style="align=left;strokeColor=none;fillColor=none;spacingLeft=4;fontSize=12;verticalAlign=top;resizable=0;rotatable=0;part=1;" vertex="1" parent="wlDCUmGC1mf5rQUe6NT3-16">
          <mxGeometry y="30" width="160" height="90" as="geometry" />
        </mxCell>
        <mxCell id="wlDCUmGC1mf5rQUe6NT3-23" style="edgeStyle=orthogonalEdgeStyle;rounded=0;orthogonalLoop=1;jettySize=auto;html=1;curved=1;endArrow=none;endFill=0;" edge="1" parent="1" source="wlDCUmGC1mf5rQUe6NT3-22" target="wlDCUmGC1mf5rQUe6NT3-16">
          <mxGeometry relative="1" as="geometry" />
        </mxCell>
        <mxCell id="wlDCUmGC1mf5rQUe6NT3-24" style="edgeStyle=orthogonalEdgeStyle;rounded=0;orthogonalLoop=1;jettySize=auto;html=1;entryX=1;entryY=0.75;entryDx=0;entryDy=0;curved=1;endArrow=none;endFill=0;" edge="1" parent="1" source="wlDCUmGC1mf5rQUe6NT3-22" target="wlDCUmGC1mf5rQUe6NT3-2">
          <mxGeometry relative="1" as="geometry" />
        </mxCell>
        <mxCell id="wlDCUmGC1mf5rQUe6NT3-22" value="&lt;div&gt;grouped &lt;br&gt;&lt;/div&gt;&lt;div&gt;in&lt;/div&gt;" style="shape=rhombus;html=1;dashed=0;whitespace=wrap;perimeter=rhombusPerimeter;" vertex="1" parent="1">
          <mxGeometry x="460" y="250" width="60" height="50" as="geometry" />
        </mxCell>
        <mxCell id="wlDCUmGC1mf5rQUe6NT3-26" value="" style="edgeStyle=orthogonalEdgeStyle;curved=1;rounded=0;orthogonalLoop=1;jettySize=auto;html=1;exitX=0;exitY=0.5;exitDx=0;exitDy=0;endArrow=none;endFill=0;" edge="1" parent="1" source="wlDCUmGC1mf5rQUe6NT3-25" target="wlDCUmGC1mf5rQUe6NT3-17">
          <mxGeometry relative="1" as="geometry" />
        </mxCell>
        <mxCell id="wlDCUmGC1mf5rQUe6NT3-27" style="edgeStyle=orthogonalEdgeStyle;curved=1;rounded=0;orthogonalLoop=1;jettySize=auto;html=1;entryX=1;entryY=0.5;entryDx=0;entryDy=0;exitX=1;exitY=0.5;exitDx=0;exitDy=0;" edge="1" parent="1" source="wlDCUmGC1mf5rQUe6NT3-25" target="wlDCUmGC1mf5rQUe6NT3-17">
          <mxGeometry relative="1" as="geometry" />
        </mxCell>
        <mxCell id="wlDCUmGC1mf5rQUe6NT3-25" value="&lt;div&gt;reply &lt;br&gt;&lt;/div&gt;&lt;div&gt;to&lt;br&gt;&lt;/div&gt;" style="shape=rhombus;html=1;dashed=0;whitespace=wrap;perimeter=rhombusPerimeter;" vertex="1" parent="1">
          <mxGeometry x="750" y="350" width="60" height="50" as="geometry" />
        </mxCell>
      </root>
    </mxGraphModel>
  </diagram>
</mxfile>
